<svg width="300" height="260" viewBox="0 0 300 260" fill="none" xmlns="http://www.w3.org/2000/svg">
<g filter="url(#filter0_i_638_42449)">
<path d="M252.145 91.4022L254.755 84.3891L292.933 90.7433C293.933 90.9098 294.454 91.9295 294.025 92.8805L286.68 109.152C286.248 110.11 285.063 110.533 284.206 110.035L252.145 91.4022Z" fill="#76E084"/>
</g>
<g filter="url(#filter1_i_638_42449)">
<path d="M220.861 45.377C232.238 38.8942 239.207 44.6638 243.317 48.5522L243.457 51.4849C243.566 53.7677 243.045 56.082 241.669 57.9033C225.981 78.6767 194.279 64.1048 192.297 62.1471C190.229 60.1041 206.641 53.4804 220.861 45.377Z" fill="#77E385"/>
</g>
<g filter="url(#filter2_i_638_42449)">
<path fill-rule="evenodd" clip-rule="evenodd" d="M228.463 39.3932C226.544 36.5653 225.263 33.3136 224.844 29.7751C222.985 14.054 233.549 3.72427 247.86 3.04965C261.632 1.40857 273.958 9.90386 275.593 23.7275C276.295 29.6562 274.743 35.2228 271.604 39.7313C275.981 44.19 278.767 50.5556 279.731 58.7C281.685 75.2208 269.472 90.2579 252.451 92.2861C231.163 94.823 218.171 85.2276 215.932 66.3026C214.691 55.81 220.036 45.8121 228.463 39.3932Z" fill="#95EDA0"/>
</g>
<path d="M101.921 119.429L118.865 103.01L120.033 112.979L101.921 119.429Z" fill="#755E4F"/>
<g filter="url(#filter3_i_638_42449)">
<path d="M118.28 101.839L179.042 48.4781L240.389 111.221L222.897 230.459L137.097 225.584L118.28 101.839Z" fill="#DDCEBF"/>
</g>
<g filter="url(#filter4_i_638_42449)">
<path d="M240.388 111.222L254.995 110.636L236.971 222.817C236.776 224.032 235.964 225.059 234.827 225.529L222.897 230.459L240.388 111.222Z" fill="#9A8775"/>
</g>
<path fill-rule="evenodd" clip-rule="evenodd" d="M99.4168 111.082C97.6245 112.729 97.6366 115.56 99.4428 117.192L101.919 119.429L179.041 48.4763V37.9214L99.4168 111.082ZM179.041 37.9214L257.331 121.774L251.344 128.876C251.112 129.151 250.69 129.156 250.451 128.887L179.041 48.4763V37.9214Z" fill="#C0A891"/>
<g filter="url(#filter5_i_638_42449)">
<path d="M179.042 37.9222H197.045C198.341 37.9222 199.58 38.4548 200.472 39.3951L272.272 115.099L257.331 121.775L179.042 37.9222Z" fill="#907562"/>
</g>
<path d="M251.069 129.206L257.333 121.777L272.273 115.099L266.183 121.891C265.396 122.769 264.43 123.468 263.35 123.942L251.138 129.298C251.081 129.323 251.029 129.254 251.069 129.206Z" fill="#755E4F"/>
<g filter="url(#filter6_i_638_42449)">
<path d="M143.085 169.666C143.085 152.81 157.218 139.399 174.051 140.282C191.409 141.193 205.016 155.533 205.016 172.915V200.741C205.016 204.088 202.21 206.751 198.868 206.575L148.622 203.939C145.518 203.776 143.085 201.212 143.085 198.104V169.666Z" fill="#AF957F"/>
</g>
<g filter="url(#filter7_i_638_42449)">
<path d="M145.193 168.646C145.193 152.34 158.858 139.364 175.142 140.205C191.926 141.072 205.091 154.934 205.091 171.741V198.309C205.091 201.654 202.287 204.316 198.947 204.143L150.734 201.652C147.628 201.492 145.193 198.927 145.193 195.817L145.193 168.646Z" fill="#735947"/>
</g>
<g filter="url(#filter8_ii_638_42449)">
<path d="M140.749 167.671C140.749 151.127 126.184 138.365 109.783 140.539L109.266 140.608C91.8389 142.918 78.8177 157.779 78.8177 175.359V203.651C78.8177 207.183 81.9269 209.907 85.428 209.443L135.674 202.782C138.578 202.397 140.749 199.921 140.749 196.991V167.671Z" fill="#877464"/>
</g>
<path d="M140.758 167.481C140.959 151.712 126.706 139.687 111.196 142.539C94.5152 144.761 82.0565 158.989 82.0565 175.817V201.85C82.0565 205.383 85.1682 208.108 88.6705 207.641L135.329 201.426C138.204 201.043 140.363 198.609 140.4 195.709L140.758 167.481Z" fill="#988573"/>
<path d="M164.12 76.3191C164.12 68.4849 170.942 62.3977 178.726 63.2876C186.835 64.0196 193.047 70.8172 193.047 78.9597V109.318C193.047 109.689 192.873 110.039 192.577 110.262L191.866 110.796L164.12 109.237V76.3191Z" fill="#988573"/>
<g filter="url(#filter9_i_638_42449)">
<path d="M162.682 78.0459C162.682 70.0786 169.141 63.6197 177.108 63.6191C185.44 64.2229 191.891 71.1618 191.886 79.5163L191.867 110.798L162.682 109.289V78.0459Z" fill="#D9D9D9"/>
</g>
<rect x="176.041" y="65.1761" width="4.67402" height="42.2197" fill="#8B7561"/>
<rect width="25.0572" height="4.74988" transform="matrix(0.998619 0.0525264 -0.0521462 0.998639 164.958 83.0516)" fill="#8B7561"/>
<rect width="25.0572" height="4.74988" transform="matrix(0.998619 0.0525264 -0.0521462 0.998639 164.958 103.689)" fill="#8B7561"/>
<rect x="174.791" y="65.5498" width="4.67402" height="42.2197" fill="#C0A891"/>
<rect width="25.0572" height="4.74988" transform="matrix(0.998619 0.0525264 -0.0521462 0.998639 163.778 84.1332)" fill="#C0A891"/>
<path d="M165.044 78.0459C165.044 71.4111 170.399 66.0271 177.023 65.9809C184.079 66.5363 189.529 72.4275 189.524 79.5148L189.507 108.312L165.044 107.047V78.0459Z" stroke="#C0A891" stroke-width="4.72287"/>
<g filter="url(#filter10_i_638_42449)">
<rect x="140.749" y="169.275" width="2.33701" height="23.4554" fill="#C7C7CC"/>
</g>
<rect width="84.5279" height="12.9698" rx="6.48492" transform="matrix(0.998619 0.0525264 -0.0521462 0.998639 136.609 114.288)" fill="#877464"/>
<g filter="url(#filter11_i_638_42449)">
<path d="M137.908 120.665C138.09 117.161 141.079 114.47 144.582 114.655L214.728 118.344C218.232 118.529 220.923 121.518 220.741 125.022C220.61 127.524 218.475 129.446 215.973 129.314L142.202 125.434C139.7 125.303 137.777 123.167 137.908 120.665Z" fill="#735947"/>
</g>
<path d="M39.9886 212.757C34.2606 217.343 21.5729 230.62 25.4741 235.528C29.3752 240.435 48.3879 235.115 54.116 230.528C59.844 225.942 61.325 218.245 57.4239 213.338C53.5227 208.43 45.7167 208.17 39.9886 212.757Z" fill="#5198DD"/>
<path d="M41.1376 203.333C34.4971 206.443 18.9825 216.195 21.4282 221.455C23.8739 226.716 43.3538 225.493 49.9942 222.383C56.6347 219.273 60.0352 212.488 57.5895 207.227C55.1438 201.967 47.778 200.223 41.1376 203.333Z" fill="#5198DD"/>
<path d="M53.3831 217.814C47.1476 223.303 31.8279 238.616 35.6418 242.981C39.4557 247.345 60.9588 239.107 67.1943 233.618C73.4298 228.13 75.3929 220.142 71.579 215.778C67.7652 211.413 59.6186 212.325 53.3831 217.814Z" fill="#5198DD"/>
<g filter="url(#filter12_i_638_42449)">
<path d="M59.1377 132.244C77.6471 131.234 86.1879 146.508 88.1447 154.271C92.7276 162.696 82.2498 175.3 55.0183 178.94C33.2331 181.852 23.4003 174.675 21.2071 170.723C17.1355 168.95 8.91058 164.535 8.58398 161.055C8.25737 157.574 9.69466 157.453 10.4541 157.828C8.57132 156.721 4.59215 153.263 3.73794 148.285C2.88373 143.307 5.3352 143.158 6.66772 143.706C3.86177 141.637 -1.11289 136.545 1.43602 132.728C4.62219 127.956 15.3402 133.138 26.3094 135.841C37.2786 138.544 36.001 133.506 59.1377 132.244Z" fill="#4E95DB"/>
</g>
<path fill-rule="evenodd" clip-rule="evenodd" d="M97.658 246.294C96.4633 246.329 95.4671 245.384 95.433 244.185C95.3989 242.986 96.1106 238.756 96.1106 238.756C96.1106 238.756 95.0058 242.59 94.4003 243.624C93.7948 244.658 92.4686 245.004 91.4381 244.396C90.4076 243.788 90.0631 242.457 90.6687 241.423L95.3831 233.371C95.9886 232.337 97.3149 231.991 98.3453 232.599C98.9104 232.932 99.2692 233.483 99.3782 234.083C99.4472 234.285 99.4874 234.501 99.4938 234.725L99.7595 244.061C99.7936 245.26 98.8527 246.26 97.658 246.294Z" fill="#535353"/>
<path fill-rule="evenodd" clip-rule="evenodd" d="M80.5324 242.317C79.3376 242.288 78.3927 241.292 78.4221 240.093C78.4514 238.894 79.3858 234.707 79.3858 234.707C79.3858 234.707 78.0799 238.477 77.4205 239.477C76.7612 240.478 75.4185 240.752 74.4217 240.091C73.4248 239.429 73.1512 238.081 73.8105 237.081L78.9442 229.291C79.6035 228.29 80.9462 228.016 81.9431 228.677C82.4897 229.04 82.8188 229.609 82.896 230.214C82.9542 230.42 82.983 230.638 82.9775 230.863L82.749 240.199C82.7196 241.399 81.7273 242.347 80.5324 242.317Z" fill="#535353"/>
<g filter="url(#filter13_i_638_42449)">
<path d="M48.6935 175.116C42.0365 202.836 52.6269 224.55 84.7394 232.319C108.369 238.035 132.185 223.263 137.996 199.065C144.772 170.849 130.826 145.991 102.962 143.337C76.3022 140.797 54.5047 150.918 48.6935 175.116Z" fill="#65A8E9"/>
<path d="M82.3262 133.928C80.603 151.393 98.1401 165.292 118.705 167.336C137.883 167.337 158.273 157.067 159.062 139.413C160.136 115.407 142.683 105.651 124.794 102.707C103.736 99.2419 84.6186 110.692 82.3262 133.928Z" fill="#65A8E9"/>
</g>
<ellipse cx="2.60046" cy="2.60289" rx="2.60046" ry="2.60289" transform="matrix(-0.791614 0.611021 0.608231 0.79376 135.889 132.484)" fill="#272727"/>
<ellipse cx="2.60046" cy="2.60289" rx="2.60046" ry="2.60289" transform="matrix(-0.791614 0.611021 0.608231 0.79376 151.597 121.099)" fill="#272727"/>
<g filter="url(#filter14_i_638_42449)">
<rect width="46.993" height="29.7733" transform="matrix(-0.7412 0.671285 0.668595 0.743627 175.706 121.503)" fill="#F9F8F3"/>
</g>
<g filter="url(#filter15_d_638_42449)">
<path d="M140.875 153.049L175.706 121.503L167.196 147.181L140.875 153.049Z" fill="#F9F8F3"/>
</g>
<g filter="url(#filter16_ddiii_638_42449)">
<path fill-rule="evenodd" clip-rule="evenodd" d="M171.418 151.749C169.37 153.604 166.593 154.233 164.526 152.173C162.459 150.114 162.232 149.126 162.589 146.947C162.827 145.49 163.449 144.136 164.413 143.37C165.498 142.508 166.71 142.696 167.797 142.864C168.118 142.914 168.427 142.962 168.72 142.981C170.075 143.069 171.039 143.507 172.077 144.661C174.098 146.91 173.072 150.251 171.418 151.749ZM166.702 144.024C167.147 143.759 167.71 143.806 168.105 144.141L168.52 144.492C169.542 145.359 170.443 146.361 171.198 147.471L171.503 147.92C171.795 148.349 171.784 148.916 171.476 149.333C170.755 150.308 169.848 151.13 168.807 151.749C168.362 152.014 167.799 151.967 167.404 151.633L166.99 151.281C165.967 150.414 165.067 149.412 164.312 148.303L164.006 147.853C163.715 147.424 163.726 146.858 164.034 146.441C164.755 145.465 165.662 144.644 166.702 144.024Z" fill="#71A3D3"/>
</g>
<g filter="url(#filter17_i_638_42449)">
<path fill-rule="evenodd" clip-rule="evenodd" d="M166.775 143.947C167.286 143.631 167.94 143.676 168.403 144.059L168.662 144.273C169.733 145.157 170.666 146.196 171.433 147.355L171.619 147.635C171.951 148.137 171.928 148.794 171.563 149.272C170.783 150.292 169.824 151.16 168.734 151.834C168.223 152.15 167.569 152.105 167.106 151.723L166.847 151.509C165.776 150.624 164.843 149.586 164.076 148.427L163.89 148.146C163.558 147.645 163.581 146.987 163.946 146.509C164.726 145.49 165.685 144.621 166.775 143.947ZM166.945 144.645C167.363 144.387 167.899 144.424 168.278 144.737L168.496 144.918C169.376 145.645 170.143 146.499 170.775 147.452L170.932 147.689C171.203 148.099 171.185 148.637 170.886 149.029C170.246 149.867 169.459 150.58 168.562 151.133C168.144 151.392 167.609 151.355 167.23 151.041L167.011 150.86C166.132 150.133 165.364 149.279 164.733 148.326L164.576 148.089C164.304 147.679 164.322 147.141 164.621 146.75C165.261 145.912 166.049 145.198 166.945 144.645Z" fill="#71A3D3"/>
</g>
<path d="M168.276 144.741C167.897 144.428 167.361 144.39 166.943 144.649C166.047 145.202 165.259 145.916 164.619 146.754C164.32 147.145 164.302 147.683 164.574 148.093L164.731 148.33C165.362 149.283 166.13 150.137 167.009 150.864L167.228 151.045C167.607 151.359 168.142 151.396 168.56 151.137C169.457 150.584 170.244 149.871 170.884 149.033C171.183 148.641 171.201 148.103 170.93 147.693L170.773 147.456C170.142 146.503 169.374 145.649 168.494 144.922L168.276 144.741Z" fill="#71A3D3"/>
<g filter="url(#filter18_f_638_42449)">
<path fill-rule="evenodd" clip-rule="evenodd" d="M164.356 151.07C163.71 150.295 163.654 149.31 163.571 148.392L162.726 148.314C162.818 149.325 163.443 150.416 164.155 151.271L164.241 151.375C164.505 151.692 164.797 151.978 165.109 152.225L165.931 152.791L166.057 152.517L165.236 151.951C164.95 151.725 164.683 151.464 164.442 151.174L164.356 151.07Z" fill="url(#paint0_linear_638_42449)"/>
</g>
<g filter="url(#filter19_f_638_42449)">
<path fill-rule="evenodd" clip-rule="evenodd" d="M172.267 145.785C172.776 146.491 172.776 147.336 172.802 148.125L173.513 148.248C173.484 147.378 173.008 146.405 172.447 145.627L172.379 145.533C172.171 145.245 171.938 144.981 171.686 144.75L170.526 143.842L170.406 144.068L171.566 144.975C171.796 145.187 172.009 145.428 172.199 145.691L172.267 145.785Z" fill="url(#paint1_linear_638_42449)"/>
</g>
<g filter="url(#filter20_f_638_42449)">
<path d="M168.305 151.641C168.331 151.669 169.257 151.116 169.945 150.493C170.633 149.87 171.489 148.659 171.463 148.631C171.438 148.602 170.577 149.808 169.889 150.432C169.201 151.055 168.28 151.612 168.305 151.641Z" fill="#B2D1ED"/>
</g>
<g filter="url(#filter21_f_638_42449)">
<path d="M167.149 144.09C167.124 144.061 166.182 144.586 165.477 145.189C164.771 145.792 163.88 146.977 163.904 147.007C163.929 147.036 164.825 145.855 165.53 145.253C166.236 144.65 167.173 144.12 167.149 144.09Z" fill="#B2D1ED"/>
</g>
<g filter="url(#filter22_f_638_42449)">
<path d="M171.48 147.977C171.509 147.952 170.767 146.813 169.98 145.938C169.194 145.063 167.73 143.914 167.702 143.939C167.674 143.965 169.133 145.118 169.919 145.994C170.706 146.869 171.452 148.003 171.48 147.977Z" fill="#B2D1ED"/>
</g>
<g filter="url(#filter23_f_638_42449)">
<path d="M163.874 147.672C163.846 147.697 164.588 148.836 165.375 149.711C166.161 150.586 167.625 151.735 167.653 151.71C167.681 151.684 166.222 150.531 165.436 149.656C164.649 148.78 163.903 147.646 163.874 147.672Z" fill="#B2D1ED"/>
</g>
<g filter="url(#filter24_f_638_42449)">
<path fill-rule="evenodd" clip-rule="evenodd" d="M171.751 146.124L171.425 146.343L171.902 147.612L172.271 147.96L171.957 146.968L172.007 147.047C172.711 148.148 172.687 149.35 171.949 149.887L172.203 150.2C173.051 149.584 173.079 148.202 172.27 146.936L171.751 146.124Z" fill="url(#paint2_linear_638_42449)"/>
</g>
<g filter="url(#filter25_i_638_42449)">
<path d="M156.45 181.721C149.337 163.854 130.83 162.511 122.465 164.073C106.365 165.35 104.7 178.843 113.081 206.074C119.786 227.859 131.026 233.969 135.807 234.3C139.301 237.356 147.167 243.163 150.677 241.944C154.186 240.725 153.675 239.319 152.98 238.769C154.874 240.056 159.958 242.285 165.147 240.907C170.336 239.528 169.408 237.155 168.296 236.141C171.523 237.875 178.623 240.325 181.202 236.252C184.426 231.16 174.728 223.343 167.319 214.202C159.91 205.061 165.342 204.055 156.45 181.721Z" fill="#4E95DB"/>
</g>
<path d="M146.759 140.523C147.808 142.128 160.296 141.867 163.294 139.893C166.291 137.918 159.616 134.651 157.614 133.372C155.412 131.965 153.284 132.068 150.286 134.042C147.289 136.017 145.71 138.919 146.759 140.523Z" fill="#535353"/>
<ellipse cx="250.814" cy="23.5837" rx="2.30663" ry="2.31505" fill="#272727"/>
<ellipse cx="233.9" cy="23.5837" rx="2.30663" ry="2.31505" fill="#272727"/>
<path d="M217.428 33.7766C222.489 31.1106 239.053 26.5427 241.253 27.5993C243.454 28.6559 241.911 30.9318 240.514 31.0131C217.51 33.0451 215.685 38.247 213.074 38.247C210.395 38.247 211.102 37.1091 217.428 33.7766Z" fill="#272727"/>
<g filter="url(#filter26_i_638_42449)">
<path d="M237.817 58.3145C245.713 46.1764 265.44 46.1443 266.253 48.0696C267.067 49.9949 266.674 55.2243 266.674 55.2243C265.239 87.0417 218.171 95.5382 215.01 94.6281C211.85 93.718 227.947 73.4872 237.817 58.3145Z" fill="#77E385"/>
</g>
<defs>
<filter id="filter0_i_638_42449" x="247.903" y="84.3892" width="46.2735" height="27.2698" filterUnits="userSpaceOnUse" color-interpolation-filters="sRGB">
<feFlood flood-opacity="0" result="BackgroundImageFix"/>
<feBlend mode="normal" in="SourceGraphic" in2="BackgroundImageFix" result="shape"/>
<feColorMatrix in="SourceAlpha" type="matrix" values="0 0 0 0 0 0 0 0 0 0 0 0 0 0 0 0 0 0 127 0" result="hardAlpha"/>
<feOffset dx="-4.24153" dy="1.41384"/>
<feGaussianBlur stdDeviation="10.6038"/>
<feComposite in2="hardAlpha" operator="arithmetic" k2="-1" k3="1"/>
<feColorMatrix type="matrix" values="0 0 0 0 1 0 0 0 0 1 0 0 0 0 1 0 0 0 0.45 0"/>
<feBlend mode="normal" in2="shape" result="effect1_innerShadow_638_42449"/>
</filter>
<filter id="filter1_i_638_42449" x="165.257" y="21.246" width="78.2143" height="47.6904" filterUnits="userSpaceOnUse" color-interpolation-filters="sRGB">
<feFlood flood-opacity="0" result="BackgroundImageFix"/>
<feBlend mode="normal" in="SourceGraphic" in2="BackgroundImageFix" result="shape"/>
<feColorMatrix in="SourceAlpha" type="matrix" values="0 0 0 0 0 0 0 0 0 0 0 0 0 0 0 0 0 0 127 0" result="hardAlpha"/>
<feOffset dx="-29.6907" dy="-21.2076"/>
<feGaussianBlur stdDeviation="13.4315"/>
<feComposite in2="hardAlpha" operator="arithmetic" k2="-1" k3="1"/>
<feColorMatrix type="matrix" values="0 0 0 0 0.442318 0 0 0 0 0.822377 0 0 0 0 0.491585 0 0 0 1 0"/>
<feBlend mode="normal" in2="shape" result="effect1_innerShadow_638_42449"/>
</filter>
<filter id="filter2_i_638_42449" x="215.753" y="2.84778" width="72.6657" height="109.633" filterUnits="userSpaceOnUse" color-interpolation-filters="sRGB">
<feFlood flood-opacity="0" result="BackgroundImageFix"/>
<feBlend mode="normal" in="SourceGraphic" in2="BackgroundImageFix" result="shape"/>
<feColorMatrix in="SourceAlpha" type="matrix" values="0 0 0 0 0 0 0 0 0 0 0 0 0 0 0 0 0 0 127 0" result="hardAlpha"/>
<feOffset dx="8.48305" dy="19.7938"/>
<feGaussianBlur stdDeviation="16.9661"/>
<feComposite in2="hardAlpha" operator="arithmetic" k2="-1" k3="1"/>
<feColorMatrix type="matrix" values="0 0 0 0 1 0 0 0 0 1 0 0 0 0 1 0 0 0 0.45 0"/>
<feBlend mode="normal" in2="shape" result="effect1_innerShadow_638_42449"/>
</filter>
<filter id="filter3_i_638_42449" x="118.28" y="48.4781" width="122.109" height="186.654" filterUnits="userSpaceOnUse" color-interpolation-filters="sRGB">
<feFlood flood-opacity="0" result="BackgroundImageFix"/>
<feBlend mode="normal" in="SourceGraphic" in2="BackgroundImageFix" result="shape"/>
<feColorMatrix in="SourceAlpha" type="matrix" values="0 0 0 0 0 0 0 0 0 0 0 0 0 0 0 0 0 0 127 0" result="hardAlpha"/>
<feOffset dy="4.67402"/>
<feGaussianBlur stdDeviation="2.92126"/>
<feComposite in2="hardAlpha" operator="arithmetic" k2="-1" k3="1"/>
<feColorMatrix type="matrix" values="0 0 0 0 0.437717 0 0 0 0 0.36883 0 0 0 0 0.299943 0 0 0 0.5 0"/>
<feBlend mode="normal" in2="shape" result="effect1_innerShadow_638_42449"/>
</filter>
<filter id="filter4_i_638_42449" x="222.897" y="110.636" width="34.4347" height="126.835" filterUnits="userSpaceOnUse" color-interpolation-filters="sRGB">
<feFlood flood-opacity="0" result="BackgroundImageFix"/>
<feBlend mode="normal" in="SourceGraphic" in2="BackgroundImageFix" result="shape"/>
<feColorMatrix in="SourceAlpha" type="matrix" values="0 0 0 0 0 0 0 0 0 0 0 0 0 0 0 0 0 0 127 0" result="hardAlpha"/>
<feOffset dx="2.33701" dy="18.6961"/>
<feGaussianBlur stdDeviation="3.50552"/>
<feComposite in2="hardAlpha" operator="arithmetic" k2="-1" k3="1"/>
<feColorMatrix type="matrix" values="0 0 0 0 0.439216 0 0 0 0 0.368627 0 0 0 0 0.298039 0 0 0 0.3 0"/>
<feBlend mode="normal" in2="shape" result="effect1_innerShadow_638_42449"/>
</filter>
<filter id="filter5_i_638_42449" x="179.042" y="32.0781" width="97.8114" height="89.6971" filterUnits="userSpaceOnUse" color-interpolation-filters="sRGB">
<feFlood flood-opacity="0" result="BackgroundImageFix"/>
<feBlend mode="normal" in="SourceGraphic" in2="BackgroundImageFix" result="shape"/>
<feColorMatrix in="SourceAlpha" type="matrix" values="0 0 0 0 0 0 0 0 0 0 0 0 0 0 0 0 0 0 127 0" result="hardAlpha"/>
<feOffset dx="4.58138" dy="-13.4042"/>
<feGaussianBlur stdDeviation="2.92205"/>
<feComposite in2="hardAlpha" operator="arithmetic" k2="-1" k3="1"/>
<feColorMatrix type="matrix" values="0 0 0 0 0.0666667 0 0 0 0 0.0666667 0 0 0 0 0.0666667 0 0 0 0.06 0"/>
<feBlend mode="normal" in2="shape" result="effect1_innerShadow_638_42449"/>
</filter>
<filter id="filter6_i_638_42449" x="143.085" y="136.736" width="65.4364" height="69.8479" filterUnits="userSpaceOnUse" color-interpolation-filters="sRGB">
<feFlood flood-opacity="0" result="BackgroundImageFix"/>
<feBlend mode="normal" in="SourceGraphic" in2="BackgroundImageFix" result="shape"/>
<feColorMatrix in="SourceAlpha" type="matrix" values="0 0 0 0 0 0 0 0 0 0 0 0 0 0 0 0 0 0 127 0" result="hardAlpha"/>
<feOffset dx="23.3701" dy="-11.6851"/>
<feGaussianBlur stdDeviation="1.75276"/>
<feComposite in2="hardAlpha" operator="arithmetic" k2="-1" k3="1"/>
<feColorMatrix type="matrix" values="0 0 0 0 0.0666667 0 0 0 0 0.0666667 0 0 0 0 0.0666667 0 0 0 0.25 0"/>
<feBlend mode="normal" in2="shape" result="effect1_innerShadow_638_42449"/>
</filter>
<filter id="filter7_i_638_42449" x="145.193" y="136.661" width="63.4035" height="67.4905" filterUnits="userSpaceOnUse" color-interpolation-filters="sRGB">
<feFlood flood-opacity="0" result="BackgroundImageFix"/>
<feBlend mode="normal" in="SourceGraphic" in2="BackgroundImageFix" result="shape"/>
<feColorMatrix in="SourceAlpha" type="matrix" values="0 0 0 0 0 0 0 0 0 0 0 0 0 0 0 0 0 0 127 0" result="hardAlpha"/>
<feOffset dx="23.3701" dy="-11.6851"/>
<feGaussianBlur stdDeviation="1.75276"/>
<feComposite in2="hardAlpha" operator="arithmetic" k2="-1" k3="1"/>
<feColorMatrix type="matrix" values="0 0 0 0 0.0666667 0 0 0 0 0.0666667 0 0 0 0 0.0666667 0 0 0 0.12 0"/>
<feBlend mode="normal" in2="shape" result="effect1_innerShadow_638_42449"/>
</filter>
<filter id="filter8_ii_638_42449" x="78.8176" y="140.298" width="65.4364" height="72.7024" filterUnits="userSpaceOnUse" color-interpolation-filters="sRGB">
<feFlood flood-opacity="0" result="BackgroundImageFix"/>
<feBlend mode="normal" in="SourceGraphic" in2="BackgroundImageFix" result="shape"/>
<feColorMatrix in="SourceAlpha" type="matrix" values="0 0 0 0 0 0 0 0 0 0 0 0 0 0 0 0 0 0 127 0" result="hardAlpha"/>
<feOffset/>
<feGaussianBlur stdDeviation="2.33701"/>
<feComposite in2="hardAlpha" operator="arithmetic" k2="-1" k3="1"/>
<feColorMatrix type="matrix" values="0 0 0 0 0.466667 0 0 0 0 0.403922 0 0 0 0 0.333333 0 0 0 0.5 0"/>
<feBlend mode="normal" in2="shape" result="effect1_innerShadow_638_42449"/>
<feColorMatrix in="SourceAlpha" type="matrix" values="0 0 0 0 0 0 0 0 0 0 0 0 0 0 0 0 0 0 127 0" result="hardAlpha"/>
<feOffset dx="3.50552" dy="3.50552"/>
<feGaussianBlur stdDeviation="2.92126"/>
<feComposite in2="hardAlpha" operator="arithmetic" k2="-1" k3="1"/>
<feColorMatrix type="matrix" values="0 0 0 0 0.795607 0 0 0 0 0.69602 0 0 0 0 0.596432 0 0 0 0.6 0"/>
<feBlend mode="normal" in2="effect1_innerShadow_638_42449" result="effect2_innerShadow_638_42449"/>
</filter>
<filter id="filter9_i_638_42449" x="162.682" y="63.6191" width="29.794" height="47.7696" filterUnits="userSpaceOnUse" color-interpolation-filters="sRGB">
<feFlood flood-opacity="0" result="BackgroundImageFix"/>
<feBlend mode="normal" in="SourceGraphic" in2="BackgroundImageFix" result="shape"/>
<feColorMatrix in="SourceAlpha" type="matrix" values="0 0 0 0 0 0 0 0 0 0 0 0 0 0 0 0 0 0 127 0" result="hardAlpha"/>
<feOffset dx="5.90358" dy="1.18072"/>
<feGaussianBlur stdDeviation="0.295179"/>
<feComposite in2="hardAlpha" operator="arithmetic" k2="-1" k3="1"/>
<feColorMatrix type="matrix" values="0 0 0 0 0 0 0 0 0 0 0 0 0 0 0 0 0 0 0.25 0"/>
<feBlend mode="normal" in2="shape" result="effect1_innerShadow_638_42449"/>
</filter>
<filter id="filter10_i_638_42449" x="140.749" y="169.275" width="4.67393" height="24.6239" filterUnits="userSpaceOnUse" color-interpolation-filters="sRGB">
<feFlood flood-opacity="0" result="BackgroundImageFix"/>
<feBlend mode="normal" in="SourceGraphic" in2="BackgroundImageFix" result="shape"/>
<feColorMatrix in="SourceAlpha" type="matrix" values="0 0 0 0 0 0 0 0 0 0 0 0 0 0 0 0 0 0 127 0" result="hardAlpha"/>
<feOffset dx="2.33701" dy="1.16851"/>
<feGaussianBlur stdDeviation="1.16851"/>
<feComposite in2="hardAlpha" operator="arithmetic" k2="-1" k3="1"/>
<feColorMatrix type="matrix" values="0 0 0 0 0.0666667 0 0 0 0 0.0666667 0 0 0 0 0.0666667 0 0 0 0.25 0"/>
<feBlend mode="normal" in2="shape" result="effect1_innerShadow_638_42449"/>
</filter>
<filter id="filter11_i_638_42449" x="137.901" y="114.646" width="89.3236" height="14.6752" filterUnits="userSpaceOnUse" color-interpolation-filters="sRGB">
<feFlood flood-opacity="0" result="BackgroundImageFix"/>
<feBlend mode="normal" in="SourceGraphic" in2="BackgroundImageFix" result="shape"/>
<feColorMatrix in="SourceAlpha" type="matrix" values="0 0 0 0 0 0 0 0 0 0 0 0 0 0 0 0 0 0 127 0" result="hardAlpha"/>
<feOffset dx="33.9961"/>
<feGaussianBlur stdDeviation="3.23772"/>
<feComposite in2="hardAlpha" operator="arithmetic" k2="-1" k3="1"/>
<feColorMatrix type="matrix" values="0 0 0 0 0 0 0 0 0 0 0 0 0 0 0 0 0 0 0.14 0"/>
<feBlend mode="normal" in2="shape" result="effect1_innerShadow_638_42449"/>
</filter>
<filter id="filter12_i_638_42449" x="-15.0801" y="118.301" width="104.265" height="61.316" filterUnits="userSpaceOnUse" color-interpolation-filters="sRGB">
<feFlood flood-opacity="0" result="BackgroundImageFix"/>
<feBlend mode="normal" in="SourceGraphic" in2="BackgroundImageFix" result="shape"/>
<feColorMatrix in="SourceAlpha" type="matrix" values="0 0 0 0 0 0 0 0 0 0 0 0 0 0 0 0 0 0 127 0" result="hardAlpha"/>
<feOffset dx="-17.4757" dy="-12.4826"/>
<feGaussianBlur stdDeviation="7.90565"/>
<feComposite in2="hardAlpha" operator="arithmetic" k2="-1" k3="1"/>
<feColorMatrix type="matrix" values="0 0 0 0 0.247973 0 0 0 0 0.497162 0 0 0 0 0.742841 0 0 0 1 0"/>
<feBlend mode="normal" in2="shape" result="effect1_innerShadow_638_42449"/>
</filter>
<filter id="filter13_i_638_42449" x="46.7961" y="102.098" width="117.307" height="143.099" filterUnits="userSpaceOnUse" color-interpolation-filters="sRGB">
<feFlood flood-opacity="0" result="BackgroundImageFix"/>
<feBlend mode="normal" in="SourceGraphic" in2="BackgroundImageFix" result="shape"/>
<feColorMatrix in="SourceAlpha" type="matrix" values="0 0 0 0 0 0 0 0 0 0 0 0 0 0 0 0 0 0 127 0" result="hardAlpha"/>
<feOffset dx="4.99304" dy="11.6504"/>
<feGaussianBlur stdDeviation="9.98609"/>
<feComposite in2="hardAlpha" operator="arithmetic" k2="-1" k3="1"/>
<feColorMatrix type="matrix" values="0 0 0 0 1 0 0 0 0 1 0 0 0 0 1 0 0 0 0.45 0"/>
<feBlend mode="normal" in2="shape" result="effect1_innerShadow_638_42449"/>
</filter>
<filter id="filter14_i_638_42449" x="140.875" y="118.265" width="54.7373" height="56.9236" filterUnits="userSpaceOnUse" color-interpolation-filters="sRGB">
<feFlood flood-opacity="0" result="BackgroundImageFix"/>
<feBlend mode="normal" in="SourceGraphic" in2="BackgroundImageFix" result="shape"/>
<feColorMatrix in="SourceAlpha" type="matrix" values="0 0 0 0 0 0 0 0 0 0 0 0 0 0 0 0 0 0 127 0" result="hardAlpha"/>
<feMorphology radius="3.23772" operator="erode" in="SourceAlpha" result="effect1_innerShadow_638_42449"/>
<feOffset dy="-3.23772"/>
<feGaussianBlur stdDeviation="4.04716"/>
<feComposite in2="hardAlpha" operator="arithmetic" k2="-1" k3="1"/>
<feColorMatrix type="matrix" values="0 0 0 0 0.913725 0 0 0 0 0.901961 0 0 0 0 0.858824 0 0 0 0.6 0"/>
<feBlend mode="normal" in2="shape" result="effect1_innerShadow_638_42449"/>
</filter>
<filter id="filter15_d_638_42449" x="137.638" y="119.884" width="41.3065" height="38.0211" filterUnits="userSpaceOnUse" color-interpolation-filters="sRGB">
<feFlood flood-opacity="0" result="BackgroundImageFix"/>
<feColorMatrix in="SourceAlpha" type="matrix" values="0 0 0 0 0 0 0 0 0 0 0 0 0 0 0 0 0 0 127 0" result="hardAlpha"/>
<feOffset dy="1.61886"/>
<feGaussianBlur stdDeviation="1.61886"/>
<feComposite in2="hardAlpha" operator="out"/>
<feColorMatrix type="matrix" values="0 0 0 0 0.913725 0 0 0 0 0.901961 0 0 0 0 0.858824 0 0 0 1 0"/>
<feBlend mode="normal" in2="BackgroundImageFix" result="effect1_dropShadow_638_42449"/>
<feBlend mode="normal" in="SourceGraphic" in2="effect1_dropShadow_638_42449" result="shape"/>
</filter>
<filter id="filter16_ddiii_638_42449" x="128.596" y="128.996" width="51.004" height="50.9937" filterUnits="userSpaceOnUse" color-interpolation-filters="sRGB">
<feFlood flood-opacity="0" result="BackgroundImageFix"/>
<feColorMatrix in="SourceAlpha" type="matrix" values="0 0 0 0 0 0 0 0 0 0 0 0 0 0 0 0 0 0 127 0" result="hardAlpha"/>
<feOffset dx="-13.7248" dy="6.40491"/>
<feGaussianBlur stdDeviation="10.0649"/>
<feComposite in2="hardAlpha" operator="out"/>
<feColorMatrix type="matrix" values="0 0 0 0 0 0 0 0 0 0 0 0 0 0 0 0 0 0 0.25 0"/>
<feBlend mode="normal" in2="BackgroundImageFix" result="effect1_dropShadow_638_42449"/>
<feColorMatrix in="SourceAlpha" type="matrix" values="0 0 0 0 0 0 0 0 0 0 0 0 0 0 0 0 0 0 127 0" result="hardAlpha"/>
<feOffset dx="0.809431" dy="0.809431"/>
<feGaussianBlur stdDeviation="1.61886"/>
<feComposite in2="hardAlpha" operator="out"/>
<feColorMatrix type="matrix" values="0 0 0 0 0.2 0 0 0 0 0.2 0 0 0 0 0.2 0 0 0 0.3 0"/>
<feBlend mode="normal" in2="effect1_dropShadow_638_42449" result="effect2_dropShadow_638_42449"/>
<feBlend mode="normal" in="SourceGraphic" in2="effect2_dropShadow_638_42449" result="shape"/>
<feColorMatrix in="SourceAlpha" type="matrix" values="0 0 0 0 0 0 0 0 0 0 0 0 0 0 0 0 0 0 127 0" result="hardAlpha"/>
<feOffset dx="-3.65995" dy="-2.74496"/>
<feGaussianBlur stdDeviation="3.20245"/>
<feComposite in2="hardAlpha" operator="arithmetic" k2="-1" k3="1"/>
<feColorMatrix type="matrix" values="0 0 0 0 0.303409 0 0 0 0 0.541624 0 0 0 0 0.77085 0 0 0 1 0"/>
<feBlend mode="normal" in2="shape" result="effect3_innerShadow_638_42449"/>
<feColorMatrix in="SourceAlpha" type="matrix" values="0 0 0 0 0 0 0 0 0 0 0 0 0 0 0 0 0 0 127 0" result="hardAlpha"/>
<feOffset/>
<feGaussianBlur stdDeviation="5.48992"/>
<feComposite in2="hardAlpha" operator="arithmetic" k2="-1" k3="1"/>
<feColorMatrix type="matrix" values="0 0 0 0 0.63577 0 0 0 0 0.775083 0 0 0 0 0.91123 0 0 0 1 0"/>
<feBlend mode="normal" in2="effect3_innerShadow_638_42449" result="effect4_innerShadow_638_42449"/>
<feColorMatrix in="SourceAlpha" type="matrix" values="0 0 0 0 0 0 0 0 0 0 0 0 0 0 0 0 0 0 127 0" result="hardAlpha"/>
<feOffset dx="2.74496" dy="-2.28747"/>
<feGaussianBlur stdDeviation="4.57493"/>
<feComposite in2="hardAlpha" operator="arithmetic" k2="-1" k3="1"/>
<feColorMatrix type="matrix" values="0 0 0 0 0.252996 0 0 0 0 0.495668 0 0 0 0 0.728434 0 0 0 1 0"/>
<feBlend mode="normal" in2="effect4_innerShadow_638_42449" result="effect5_innerShadow_638_42449"/>
</filter>
<filter id="filter17_i_638_42449" x="163.656" y="142.119" width="8.19751" height="9.92514" filterUnits="userSpaceOnUse" color-interpolation-filters="sRGB">
<feFlood flood-opacity="0" result="BackgroundImageFix"/>
<feBlend mode="normal" in="SourceGraphic" in2="BackgroundImageFix" result="shape"/>
<feColorMatrix in="SourceAlpha" type="matrix" values="0 0 0 0 0 0 0 0 0 0 0 0 0 0 0 0 0 0 127 0" result="hardAlpha"/>
<feOffset dy="-1.61886"/>
<feGaussianBlur stdDeviation="0.809431"/>
<feComposite in2="hardAlpha" operator="arithmetic" k2="-1" k3="1"/>
<feColorMatrix type="matrix" values="0 0 0 0 0.206202 0 0 0 0 0.384342 0 0 0 0 0.558919 0 0 0 1 0"/>
<feBlend mode="normal" in2="shape" result="effect1_innerShadow_638_42449"/>
</filter>
<filter id="filter18_f_638_42449" x="157.694" y="143.281" width="13.3957" height="14.5418" filterUnits="userSpaceOnUse" color-interpolation-filters="sRGB">
<feFlood flood-opacity="0" result="BackgroundImageFix"/>
<feBlend mode="normal" in="SourceGraphic" in2="BackgroundImageFix" result="shape"/>
<feGaussianBlur stdDeviation="2.51621" result="effect1_foregroundBlur_638_42449"/>
</filter>
<filter id="filter19_f_638_42449" x="165.373" y="138.81" width="13.1718" height="14.4705" filterUnits="userSpaceOnUse" color-interpolation-filters="sRGB">
<feFlood flood-opacity="0" result="BackgroundImageFix"/>
<feBlend mode="normal" in="SourceGraphic" in2="BackgroundImageFix" result="shape"/>
<feGaussianBlur stdDeviation="2.51621" result="effect1_foregroundBlur_638_42449"/>
</filter>
<filter id="filter20_f_638_42449" x="165.102" y="145.428" width="9.56384" height="9.4165" filterUnits="userSpaceOnUse" color-interpolation-filters="sRGB">
<feFlood flood-opacity="0" result="BackgroundImageFix"/>
<feBlend mode="normal" in="SourceGraphic" in2="BackgroundImageFix" result="shape"/>
<feGaussianBlur stdDeviation="1.60123" result="effect1_foregroundBlur_638_42449"/>
</filter>
<filter id="filter21_f_638_42449" x="161.159" y="141.344" width="8.73504" height="8.40789" filterUnits="userSpaceOnUse" color-interpolation-filters="sRGB">
<feFlood flood-opacity="0" result="BackgroundImageFix"/>
<feBlend mode="normal" in="SourceGraphic" in2="BackgroundImageFix" result="shape"/>
<feGaussianBlur stdDeviation="1.37248" result="effect1_foregroundBlur_638_42449"/>
</filter>
<filter id="filter22_f_638_42449" x="164.956" y="141.194" width="9.2697" height="9.52874" filterUnits="userSpaceOnUse" color-interpolation-filters="sRGB">
<feFlood flood-opacity="0" result="BackgroundImageFix"/>
<feBlend mode="normal" in="SourceGraphic" in2="BackgroundImageFix" result="shape"/>
<feGaussianBlur stdDeviation="1.37248" result="effect1_foregroundBlur_638_42449"/>
</filter>
<filter id="filter23_f_638_42449" x="161.129" y="144.927" width="9.2697" height="9.52874" filterUnits="userSpaceOnUse" color-interpolation-filters="sRGB">
<feFlood flood-opacity="0" result="BackgroundImageFix"/>
<feBlend mode="normal" in="SourceGraphic" in2="BackgroundImageFix" result="shape"/>
<feGaussianBlur stdDeviation="1.37248" result="effect1_foregroundBlur_638_42449"/>
</filter>
<filter id="filter24_f_638_42449" x="168.222" y="142.922" width="7.8385" height="10.4807" filterUnits="userSpaceOnUse" color-interpolation-filters="sRGB">
<feFlood flood-opacity="0" result="BackgroundImageFix"/>
<feBlend mode="normal" in="SourceGraphic" in2="BackgroundImageFix" result="shape"/>
<feGaussianBlur stdDeviation="1.60123" result="effect1_foregroundBlur_638_42449"/>
</filter>
<filter id="filter25_i_638_42449" x="92.3073" y="151.108" width="89.5313" height="91.0019" filterUnits="userSpaceOnUse" color-interpolation-filters="sRGB">
<feFlood flood-opacity="0" result="BackgroundImageFix"/>
<feBlend mode="normal" in="SourceGraphic" in2="BackgroundImageFix" result="shape"/>
<feColorMatrix in="SourceAlpha" type="matrix" values="0 0 0 0 0 0 0 0 0 0 0 0 0 0 0 0 0 0 127 0" result="hardAlpha"/>
<feOffset dx="-17.4757" dy="-12.4826"/>
<feGaussianBlur stdDeviation="7.90565"/>
<feComposite in2="hardAlpha" operator="arithmetic" k2="-1" k3="1"/>
<feColorMatrix type="matrix" values="0 0 0 0 0.247973 0 0 0 0 0.497162 0 0 0 0 0.742841 0 0 0 1 0"/>
<feBlend mode="normal" in2="shape" result="effect1_innerShadow_638_42449"/>
</filter>
<filter id="filter26_i_638_42449" x="187.743" y="25.9277" width="79.0261" height="68.7649" filterUnits="userSpaceOnUse" color-interpolation-filters="sRGB">
<feFlood flood-opacity="0" result="BackgroundImageFix"/>
<feBlend mode="normal" in="SourceGraphic" in2="BackgroundImageFix" result="shape"/>
<feColorMatrix in="SourceAlpha" type="matrix" values="0 0 0 0 0 0 0 0 0 0 0 0 0 0 0 0 0 0 127 0" result="hardAlpha"/>
<feOffset dx="-29.6907" dy="-21.2076"/>
<feGaussianBlur stdDeviation="13.4315"/>
<feComposite in2="hardAlpha" operator="arithmetic" k2="-1" k3="1"/>
<feColorMatrix type="matrix" values="0 0 0 0 0.442318 0 0 0 0 0.822377 0 0 0 0 0.491585 0 0 0 1 0"/>
<feBlend mode="normal" in2="shape" result="effect1_innerShadow_638_42449"/>
</filter>
<linearGradient id="paint0_linear_638_42449" x1="162.781" y1="148.276" x2="165.892" y2="152.817" gradientUnits="userSpaceOnUse">
<stop stop-color="white" stop-opacity="0"/>
<stop offset="0.655" stop-color="white" stop-opacity="0.4"/>
<stop offset="1" stop-color="white" stop-opacity="0"/>
</linearGradient>
<linearGradient id="paint1_linear_638_42449" x1="173.465" y1="148.276" x2="171.053" y2="144.192" gradientUnits="userSpaceOnUse">
<stop stop-color="white" stop-opacity="0"/>
<stop offset="0.585" stop-color="white" stop-opacity="0.4"/>
<stop offset="1" stop-color="white" stop-opacity="0.1"/>
</linearGradient>
<linearGradient id="paint2_linear_638_42449" x1="170.711" y1="146.753" x2="173.066" y2="149.354" gradientUnits="userSpaceOnUse">
<stop stop-color="#98C1E7"/>
<stop offset="1" stop-color="#85B1DB" stop-opacity="0"/>
</linearGradient>
</defs>
</svg>
